<svg id="Layer_1" enable-background="new 0 0 512 512" viewBox="0 0 512 512" xmlns="http://www.w3.org/2000/svg"><g><g><path d="m469.333 448h-10.667v-10.667c0-5.888-4.779-10.667-10.667-10.667h-32v-106.666h10.667c17.643 0 32-14.357 32-32s-14.357-32-32-32h-11.221c-4.843-72.96-58.645-132.693-128.896-146.347-2.624-10.347-9.92-18.752-19.883-22.315v-23.338h53.334c4.309 0 8.213-2.603 9.856-6.592 1.664-3.989.747-8.576-2.304-11.627l-13.781-13.781 13.781-13.781c3.051-3.051 3.968-7.637 2.304-11.627-1.643-3.989-5.547-6.592-9.856-6.592h-64c-5.888 0-10.667 4.779-10.667 10.667v76.629c-10.048 3.584-17.749 11.968-20.331 22.443-70.037 13.802-123.626 73.45-128.469 146.261h-11.2c-17.643 0-32 14.357-32 32s14.357 32 32 32h10.667v106.667h-32c-5.888 0-10.667 4.779-10.667 10.667v10.666h-10.666c-17.643 0-32 14.357-32 32v21.333c0 5.888 4.779 10.667 10.667 10.667h469.333c5.888 0 10.667-4.779 10.667-10.667v-21.333c-.001-17.643-14.358-32-32.001-32zm-330.666-21.333h-21.333v-106.667h21.333zm42.666 0h-21.333v-106.667h21.333zm42.667 0h-21.333v-106.667h21.333zm42.667 0h-21.333v-106.667h21.333zm42.666 0h-21.333v-106.667h21.333zm42.667 0h-21.333v-106.667h21.333zm42.667 0h-21.333v-106.667h21.333z"/></g></g><g/><g/><g/><g/><g/><g/><g/><g/><g/><g/><g/><g/><g/><g/><g/></svg>