<svg height="512pt" viewBox="0 0 512 512.00002" width="512pt" xmlns="http://www.w3.org/2000/svg"><path d="m271 97.59375v-82.59375c0-8.285156-6.714844-15-15-15s-15 6.714844-15 15v82.59375c-29.882812 4.746094-55.191406 23.414062-69.023438 49.140625h168.046876c-13.832032-25.726563-39.140626-44.394531-69.023438-49.140625zm0 0"/><path d="m367.398438 191.734375c0-8.285156-6.714844-15-15-15h-192.796876c-8.285156 0-15 6.714844-15 15v19.265625h222.796876zm0 0"/><path d="m383.46875 256c0-8.285156-6.71875-15-15-15h-224.9375c-8.28125 0-15 6.714844-15 15v35.332031h254.9375zm0 0"/><path d="m158.53125 321.332031h44.980469v190.667969h-44.980469zm0 0"/><path d="m0 336.332031v160.667969c0 8.285156 6.714844 15 15 15h113.53125v-190.667969h-113.53125c-8.285156 0-15 6.71875-15 15zm64.265625 64.269531c0-8.285156 6.71875-15 15-15 8.285156 0 15 6.714844 15 15v32.132813c0 8.28125-6.714844 15-15 15-8.28125 0-15-6.71875-15-15zm0 0"/><path d="m308.488281 321.332031h44.980469v190.667969h-44.980469zm0 0"/><path d="m233.511719 321.332031h44.976562v190.667969h-44.976562zm0 0"/><path d="m497 321.332031h-113.53125v190.667969h113.53125c8.285156 0 15-6.714844 15-15v-160.667969c0-8.28125-6.714844-15-15-15zm-49.265625 111.402344c0 8.28125-6.71875 15-15 15-8.285156 0-15-6.71875-15-15v-32.132813c0-8.285156 6.714844-15 15-15 8.28125 0 15 6.714844 15 15zm0 0"/></svg>